<?xml version="1.0" encoding="utf-8"?>
<!-- Generator: Adobe Illustrator 25.0.0, SVG Export Plug-In . SVG Version: 6.00 Build 0)  -->
<svg version="1.2" baseProfile="tiny" id="Layer_1" xmlns="http://www.w3.org/2000/svg" xmlns:xlink="http://www.w3.org/1999/xlink"
	 x="0px" y="0px" viewBox="0 0 600 500" overflow="visible" xml:space="preserve">
<path fill="#E85A4F" d="M133,270.584c1.554-5.387,3.569-10.511,7.923-14.364c10.411-9.215,24.442-8.586,34.832,1.707
	c11.288,11.183,22.483,22.459,33.719,33.695c31.54,31.54,63.082,63.078,94.61,94.63c0.96,0.96,1.775,2.065,2.936,3.43
	c1.286-1.226,2.249-2.106,3.171-3.027c42.699-42.692,85.414-85.367,128.069-128.104c7.414-7.429,15.934-10.662,26.234-7.631
	c16.31,4.801,22.53,25.167,11.784,38.329c-1.074,1.316-2.206,2.595-3.407,3.796c-48.865,48.884-97.756,97.744-146.602,146.648
	c-7.628,7.637-16.451,10.965-26.865,7.186c-3.702-1.343-7.341-3.753-10.145-6.545c-49.462-49.251-98.781-98.645-148.161-147.978
	c-4.218-4.214-6.731-9.254-8.097-14.963C133,275.124,133,272.854,133,270.584z"/>
<path fill="#EB8074" d="M133,96.156c1.834-6.042,4.459-11.508,9.677-15.529c8.313-6.407,20.845-6.634,29.152-0.191
	c1.787,1.386,3.459,2.94,5.06,4.541c42.536,42.517,85.058,85.048,127.569,127.59c0.873,0.873,1.589,1.903,2.54,3.057
	c1.384-1.313,2.369-2.206,3.307-3.145c42.687-42.687,85.388-85.36,128.037-128.085c7.625-7.638,16.344-10.748,26.898-7.35
	c15.334,4.936,21.465,24.622,11.627,37.369c-1.244,1.611-2.61,3.145-4.05,4.585c-48.932,48.959-97.875,97.907-146.831,146.843
	c-9.211,9.207-20.524,11.104-30.93,5.063c-2.319-1.346-4.422-3.189-6.332-5.097c-49.058-48.994-98.061-98.042-147.132-147.023
	c-4.315-4.307-7.035-9.35-8.592-15.137C133,101.15,133,98.653,133,96.156z"/>
</svg>
